<svg width="26" height="25" viewBox="0 0 26 25" fill="none" xmlns="http://www.w3.org/2000/svg">
<path d="M13.0835 0C6.31879 0 0.833008 5.48578 0.833008 12.2505C0.833008 19.0152 6.31879 24.501 13.0835 24.501C19.8482 24.501 25.334 19.0152 25.334 12.2505C25.334 5.48578 19.8482 0 13.0835 0ZM9.52368 18.5193H6.54011V9.54323H9.52363L9.52368 18.5193ZM8.03194 8.31751H8.01251C7.01132 8.31751 6.36382 7.62832 6.36382 6.76696C6.36382 5.88617 7.03113 5.21603 8.0518 5.21603C9.07242 5.21603 9.70049 5.88617 9.71992 6.76696C9.71992 7.62832 9.07242 8.31756 8.03194 8.31756V8.31751ZM20.2818 18.5193H17.2986V13.7173C17.2986 12.5105 16.8666 11.6874 15.7871 11.6874C14.9629 11.6874 14.4721 12.2426 14.2563 12.7786C14.1774 12.9703 14.1582 13.2384 14.1582 13.5066V18.5193H11.1748C11.1748 18.5193 11.2139 10.3853 11.1748 9.54323H14.1582V10.8141C14.5547 10.2026 15.2641 9.33257 16.847 9.33257C18.8099 9.33257 20.2818 10.6154 20.2818 13.3724V18.5193Z" fill="white"/>
</svg>
