<svg width="14" height="19" viewBox="0 0 14 19" fill="none" xmlns="http://www.w3.org/2000/svg">
<path d="M6.64913 0.0827637C2.98272 0.0827637 0 3.06549 0 6.73189C0 7.93891 0.541317 9.23705 0.564003 9.29181C0.738836 9.70679 1.08381 10.3514 1.33256 10.7292L5.89152 17.6369C6.07809 17.92 6.35422 18.0824 6.64913 18.0824C6.94404 18.0824 7.22017 17.92 7.40674 17.6373L11.9661 10.7292C12.2152 10.3514 12.5598 9.70679 12.7346 9.29181C12.7573 9.23744 13.2983 7.9393 13.2983 6.73189C13.2983 3.06549 10.3155 0.0827637 6.64913 0.0827637ZM12.0134 8.9883C11.8574 9.36026 11.5362 9.95985 11.3129 10.2986L6.75356 17.2066C6.6636 17.3431 6.63505 17.3431 6.54509 17.2066L1.98574 10.2986C1.76241 9.95985 1.4413 9.35987 1.28524 8.9879C1.27859 8.97187 0.782251 7.77698 0.782251 6.73189C0.782251 3.4969 3.41413 0.865014 6.64913 0.865014C9.88413 0.865014 12.516 3.4969 12.516 6.73189C12.516 7.77855 12.0185 8.97656 12.0134 8.9883Z" fill="#FFC727"/>
<path d="M6.64916 3.21204C4.708 3.21204 3.12903 4.7914 3.12903 6.73216C3.12903 8.67293 4.708 10.2523 6.64916 10.2523C8.59031 10.2523 10.1693 8.67293 10.1693 6.73216C10.1693 4.7914 8.59031 3.21204 6.64916 3.21204ZM6.64916 9.47004C5.1398 9.47004 3.91128 8.24191 3.91128 6.73216C3.91128 5.22242 5.1398 3.99429 6.64916 3.99429C8.15851 3.99429 9.38703 5.22242 9.38703 6.73216C9.38703 8.24191 8.15851 9.47004 6.64916 9.47004Z" fill="#FFC727"/>
</svg>
