<svg width="16" height="13" viewBox="0 0 16 13" fill="none" xmlns="http://www.w3.org/2000/svg">
<path d="M0 3.72836V9.68276C0 10.3193 0.26773 10.9297 0.744293 11.3798C1.22086 11.8299 1.86721 12.0828 2.54118 12.0828H12.7059C13.3798 12.0828 14.0262 11.8299 14.5028 11.3798C14.9793 10.9297 15.2471 10.3193 15.2471 9.68276V2.48276C15.2471 1.84624 14.9793 1.23579 14.5028 0.785707C14.0262 0.33562 13.3798 0.0827637 12.7059 0.0827637H2.54118C1.86721 0.0827637 1.22086 0.33562 0.744293 0.785707C0.26773 1.23579 0 1.84624 0 2.48276V3.72836ZM2.54118 1.28276H12.7059C13.0429 1.28276 13.366 1.40919 13.6043 1.63424C13.8426 1.85928 13.9765 2.1645 13.9765 2.48276V3.37076L7.62353 6.60116L1.27059 3.37076V2.48276C1.27059 2.1645 1.40445 1.85928 1.64274 1.63424C1.88102 1.40919 2.2042 1.28276 2.54118 1.28276ZM1.27059 4.73396L7.3224 7.81076C7.41495 7.85782 7.51842 7.88245 7.62353 7.88245C7.72864 7.88245 7.83211 7.85782 7.92466 7.81076L13.9765 4.73396V9.68276C13.9765 10.001 13.8426 10.3062 13.6043 10.5313C13.366 10.7563 13.0429 10.8828 12.7059 10.8828H2.54118C2.2042 10.8828 1.88102 10.7563 1.64274 10.5313C1.40445 10.3062 1.27059 10.001 1.27059 9.68276V4.73396Z" fill="#FFC727"/>
</svg>
