<svg width="30" height="30" viewBox="0 0 30 30" fill="none" xmlns="http://www.w3.org/2000/svg">
<path d="M20.0549 21.1266C23.0053 19.4822 25.0009 16.3309 25.0009 12.7135C25.0009 12.6437 25.0001 12.5741 24.9987 12.5046M15.3759 14.5179V12.7135M9.67598 20.4701C10.0195 20.7229 10.3794 20.9527 10.7533 21.1579M5.8317 11.4603C5.77775 11.8759 5.75074 12.2945 5.75085 12.7135C5.75085 15.1686 6.67007 17.409 8.18314 19.1094M14.8049 16.2099V19.7099M16.5549 16.2099V19.7099M18.3049 17.9352V19.7099" stroke="white" stroke-miterlimit="10" stroke-linecap="round" stroke-linejoin="round"/>
<path d="M18.8758 26.261V25.0755C18.8758 24.9986 18.909 24.926 18.9649 24.873C19.6362 24.2353 20.0549 23.334 20.0549 22.3349V17.9599C20.0549 17.4888 19.6928 17.0833 19.2222 17.0612C18.7197 17.0376 18.3049 17.4379 18.3049 17.9352V16.2347C18.3049 15.7635 17.9428 15.3581 17.4722 15.336C16.9697 15.3123 16.5549 15.7127 16.5549 16.21V15.3632C16.5549 14.8921 16.1928 14.4867 15.7222 14.4645C15.2197 14.4409 14.8049 14.8413 14.8049 15.3386V16.21C14.8049 15.7128 14.39 15.3124 13.8876 15.336C13.4169 15.3582 13.0548 15.7636 13.0548 16.2347V21.3097L12.6143 20.8691C12.1743 20.4291 11.4608 20.4291 11.0208 20.8691L10.7793 21.1106C10.7265 21.1634 10.6968 21.2351 10.6968 21.3098C10.6968 21.3845 10.7265 21.4562 10.7793 21.509L14.0565 24.7862C14.1629 24.8946 14.2762 24.9961 14.3957 25.0899C14.4628 25.1425 14.5009 25.2239 14.5009 25.3091V26.2611" stroke="white" stroke-miterlimit="10" stroke-linecap="round" stroke-linejoin="round"/>
<path d="M18.6894 11.4598L21.7205 9.70979M17.8144 9.94421L20.8455 8.19424M17.8144 9.94421C17.3838 10.1928 16.8296 10.0338 16.5989 9.58686C16.3828 9.16815 16.5528 8.65193 16.9608 8.41632L18.4336 7.56601M17.8144 9.94421L17.0811 10.3676C16.6731 10.6033 16.503 11.1195 16.7191 11.5382C16.9499 11.9852 17.5041 12.1442 17.9347 11.8956L18.6894 11.4599C18.2588 11.7085 18.1194 12.2679 18.3912 12.6913C18.6456 13.0878 19.1778 13.1986 19.5858 12.963L20.9834 12.1562M18.4336 7.56601L19.9705 6.67869M18.4336 7.56601C18.0029 7.81463 17.4488 7.65565 17.218 7.20866C17.0019 6.79001 17.1719 6.27373 17.5799 6.03813L21.3688 3.85063C22.234 3.35108 23.2239 3.26297 24.1119 3.52556C24.1857 3.54736 24.2651 3.53987 24.3317 3.50139L25.3584 2.90866M22.7149 11.1564L23.9808 10.4255L23.8196 11.0274C23.6585 11.6284 24.0153 12.2463 24.6163 12.4074L24.9462 12.4958C24.982 12.5053 25.0193 12.5078 25.0559 12.503C25.0926 12.4981 25.128 12.4861 25.16 12.4676C25.1921 12.4491 25.2201 12.4245 25.2427 12.3951C25.2652 12.3658 25.2817 12.3323 25.2913 12.2965L26.4908 7.81982C26.5315 7.67344 26.5627 7.52458 26.5842 7.37418C26.5963 7.28979 26.6477 7.21615 26.7215 7.17356L27.546 6.69756M18.8759 26.2611H13.9075C13.8328 26.2611 13.7612 26.2907 13.7084 26.3436C13.6555 26.3964 13.6259 26.468 13.6259 26.5427V28.5133C13.6259 28.588 13.6555 28.6596 13.7084 28.7125C13.7612 28.7653 13.8328 28.795 13.9075 28.795H18.5942C18.6689 28.795 18.7406 28.7653 18.7934 28.7125C18.8462 28.6596 18.8759 28.588 18.8759 28.5133V26.2611Z" stroke="white" stroke-miterlimit="10" stroke-linecap="round" stroke-linejoin="round"/>
<path d="M13.9399 11.8845L15.3758 12.7136L16.9385 11.8113M20.322 4.45497C18.8765 3.58736 17.1844 3.08849 15.3758 3.08849C13.9201 3.08849 12.5398 3.4117 11.3028 3.99018M13.5082 9.83029L10.4771 8.08026M12.6333 11.3458L9.60216 9.59581M10.2641 11.9987L8.72717 11.1114M25.3583 2.90866L27.8424 7.21136C27.8798 7.27606 27.9413 7.32327 28.0135 7.3426C28.0856 7.36194 28.1625 7.35181 28.2272 7.31446L29.2349 6.73266C29.2778 6.70794 29.3133 6.67238 29.3381 6.62956C29.3628 6.58673 29.3758 6.53816 29.3758 6.48871V1.07705C29.3758 0.860208 29.141 0.724659 28.9533 0.833109L25.3583 2.90866Z" stroke="white" stroke-miterlimit="10" stroke-linecap="round" stroke-linejoin="round"/>
<path d="M2.76843 8.33047L3.79508 8.9232C3.86173 8.96168 3.90793 9.0267 3.9259 9.10152C4.14246 10.0018 4.71373 10.815 5.57897 11.3146L9.36781 13.5021C9.77587 13.7377 10.308 13.6268 10.5625 13.2302C10.8342 12.8069 10.6949 12.2475 10.2642 11.9989L11.7369 12.8492C12.145 13.0848 12.6771 12.9739 12.9316 12.5774C13.2033 12.1541 13.064 11.5946 12.6333 11.346L13.3666 11.7694C13.7747 12.005 14.3068 11.8941 14.5613 11.4976C14.833 11.0743 14.6937 10.5149 14.263 10.2662L13.5083 9.83053C13.939 10.0791 14.4931 9.92011 14.7239 9.47312C14.94 9.05447 14.77 8.53819 14.3619 8.30259L9.96691 5.76512L10.5688 5.60388C11.1698 5.44281 11.5266 4.82495 11.3655 4.22388L11.2771 3.89397C11.2578 3.8218 11.2106 3.76028 11.1459 3.72292C11.0812 3.68556 11.0043 3.67543 10.9321 3.69475L6.45542 4.8943C6.3083 4.93223 6.16379 4.97966 6.0228 5.03628C5.9437 5.06805 5.85424 5.06033 5.78043 5.01768L4.95593 4.54163" stroke="white" stroke-miterlimit="10" stroke-linecap="round" stroke-linejoin="round"/>
<path d="M3.61394 6.86569L2.76836 8.33025L1.5167 7.6076C1.47388 7.58288 1.43832 7.54732 1.4136 7.5045C1.38887 7.46168 1.37586 7.4131 1.37585 7.36366V1.95205C1.37585 1.73521 1.61062 1.59966 1.79839 1.70811L5.14938 3.64281C5.21407 3.68017 5.26128 3.7417 5.28061 3.81386C5.29995 3.88602 5.28983 3.9629 5.25247 4.0276L4.62431 5.11572" stroke="white" stroke-miterlimit="10" stroke-linecap="round" stroke-linejoin="round"/>
</svg>
