<svg width="30" height="26" viewBox="0 0 30 26" fill="none" xmlns="http://www.w3.org/2000/svg">
<path d="M24.9021 7.47367H22.7756V5.20806C22.7756 3.90976 22.2871 2.67297 21.4001 1.72566C21.3609 1.68378 21.3139 1.65004 21.2616 1.62635C21.2094 1.60267 21.153 1.58951 21.0956 1.58763C21.0383 1.58574 20.9811 1.59517 20.9275 1.61538C20.8738 1.63558 20.8246 1.66617 20.7827 1.70538C20.7409 1.74458 20.7071 1.79165 20.6834 1.84389C20.6598 1.89613 20.6466 1.95253 20.6447 2.00985C20.6428 2.06718 20.6523 2.12431 20.6725 2.178C20.6927 2.23168 20.7232 2.28086 20.7624 2.32272C21.4973 3.10759 21.902 4.13229 21.902 5.20806V7.47367H13.0137C10.2037 7.47367 7.91769 9.75978 7.91769 12.5697V14.1324H7.23352C7.09963 14.132 6.96699 14.1582 6.84329 14.2095C6.71959 14.2607 6.60728 14.336 6.51285 14.4309L4.19453 16.7492V14.4171C4.19453 14.0598 4.00324 13.724 3.6952 13.5409C2.41951 12.7824 1.62699 11.3911 1.62699 9.91001V5.20806C1.62699 2.8798 3.52116 0.985632 5.84942 0.985632H17.6796C18.2253 0.985632 18.7561 1.08805 19.2573 1.29013C19.3647 1.33345 19.485 1.33231 19.5916 1.28697C19.6982 1.24162 19.7824 1.15579 19.8257 1.04835C19.869 0.940905 19.8679 0.820655 19.8225 0.714051C19.7772 0.607447 19.6914 0.523222 19.5839 0.479904C18.9785 0.235779 18.3378 0.112061 17.6796 0.112061H5.84942C3.03947 0.112061 0.753418 2.39812 0.753418 5.20806V9.91001C0.753418 11.6977 1.70958 13.3767 3.24876 14.2918C3.27058 14.3047 3.28869 14.323 3.30134 14.345C3.314 14.3669 3.32075 14.3918 3.32095 14.4171V16.9602C3.32065 17.1157 3.36664 17.2679 3.45307 17.3972C3.53949 17.5266 3.66245 17.6273 3.80629 17.6865C4.00306 17.7811 4.40484 17.7675 4.66313 17.5161L7.13053 15.0487C7.14402 15.0351 7.16007 15.0243 7.17775 15.017C7.19543 15.0097 7.21438 15.006 7.23352 15.006H7.91769V17.2716C7.91769 17.9594 8.05248 18.6269 8.31831 19.2554C8.36425 19.3609 8.44995 19.444 8.5568 19.4867C8.66365 19.5293 8.78302 19.5281 8.88899 19.4833C8.99496 19.4385 9.07897 19.3537 9.12277 19.2473C9.16657 19.1409 9.16664 19.0215 9.12294 18.9151C8.90292 18.3949 8.79131 17.8419 8.79131 17.2717V12.5698C8.79131 10.2415 10.6855 8.3473 13.0137 8.3473H24.9021C27.2304 8.3473 29.1245 10.2415 29.1245 12.5698V17.2717C29.1245 18.7586 28.3642 20.1082 27.0907 20.8819C26.7905 21.0643 26.604 21.3971 26.604 21.7505V24.5993L23.7973 21.7926C23.7029 21.6976 23.5906 21.6224 23.4669 21.5711C23.3432 21.5199 23.2106 21.4937 23.0767 21.4941H13.0137C11.9541 21.4941 10.9409 21.0999 10.1606 20.3844C10.0752 20.306 9.96219 20.2649 9.84645 20.2699C9.73071 20.2749 9.6217 20.3256 9.54339 20.411C9.46509 20.4964 9.42391 20.6094 9.42891 20.7251C9.43391 20.8409 9.48469 20.9499 9.57007 21.0282C10.5119 21.892 11.7348 22.3677 13.0136 22.3677H23.0766C23.1149 22.3677 23.1524 22.3832 23.1795 22.4103L26.1353 25.3662C26.3636 25.5416 26.5867 25.6772 26.9921 25.5366C27.1359 25.4773 27.2589 25.3766 27.3453 25.2472C27.4317 25.1179 27.4777 24.9657 27.4774 24.8102V21.7504C27.4774 21.7002 27.503 21.6534 27.5441 21.6285C29.0808 20.695 29.9981 19.0663 29.9981 17.2716V12.5697C29.9981 9.75978 27.7121 7.47367 24.9021 7.47367Z" fill="white"/>
<path d="M17.725 17.8906C17.4689 17.5287 17.0023 17.286 16.4701 17.286C15.6632 17.286 15.0068 17.8438 15.0068 18.5294C15.0068 19.2149 15.6633 19.7727 16.4701 19.7727C17.1782 19.7727 17.7702 19.3432 17.9047 18.7748C18.2276 18.6389 18.5173 18.4348 18.7541 18.1766C18.9908 17.9184 19.169 17.612 19.2764 17.2786C19.9143 17.1333 20.3919 16.5619 20.3919 15.8806V14.3055C20.3919 13.6478 19.9468 13.0925 19.342 12.9241C19.1996 12.0468 18.7685 11.2419 18.1076 10.6335C17.3701 9.95465 16.4117 9.58081 15.4088 9.58081C13.4353 9.58081 11.7846 11.0023 11.4752 12.9242C10.8707 13.0927 10.4257 13.6479 10.4257 14.3055V15.8805C10.4257 16.6713 11.069 17.3146 11.8597 17.3146C12.6505 17.3146 13.2938 16.6713 13.2938 15.8805V14.3055C13.2938 13.6889 12.9026 13.162 12.3554 12.9598C12.6386 11.5127 13.9036 10.4544 15.4088 10.4544C16.8949 10.4544 18.1758 11.5312 18.461 12.9602C17.9144 13.1627 17.5238 13.6893 17.5238 14.3055V15.8805C17.5238 16.4634 17.8735 16.9658 18.3739 17.1899C18.2362 17.4855 18.0093 17.7306 17.725 17.8906ZM16.4701 18.8992C16.1226 18.8992 15.8804 18.7044 15.8804 18.5295C15.8804 18.3546 16.1226 18.1597 16.4701 18.1597C16.8177 18.1597 17.0599 18.3546 17.0599 18.5295C17.0599 18.7044 16.8176 18.8992 16.4701 18.8992ZM12.4202 15.8806C12.4202 16.1897 12.1688 16.4411 11.8597 16.4411C11.5507 16.4411 11.2992 16.1897 11.2992 15.8806V14.3056C11.2992 13.9965 11.5507 13.7451 11.8597 13.7451C12.1688 13.7451 12.4202 13.9965 12.4202 14.3056V15.8806ZM18.3974 14.3056C18.3974 13.9965 18.6488 13.7451 18.9579 13.7451C19.2669 13.7451 19.5184 13.9965 19.5184 14.3056V15.8806C19.5184 16.1897 19.2669 16.4411 18.9579 16.4411C18.6488 16.4411 18.3974 16.1897 18.3974 15.8806V14.3056ZM21.5269 12.0563H25.0061C25.1219 12.0563 25.233 12.0103 25.3149 11.9284C25.3969 11.8465 25.4429 11.7354 25.4429 11.6195C25.4429 11.5037 25.3969 11.3926 25.3149 11.3107C25.233 11.2288 25.1219 11.1828 25.0061 11.1828H21.5269C21.4111 11.1828 21.3 11.2288 21.2181 11.3107C21.1362 11.3926 21.0902 11.5037 21.0902 11.6195C21.0902 11.7354 21.1362 11.8465 21.2181 11.9284C21.3 12.0103 21.4111 12.0563 21.5269 12.0563ZM21.5269 14.0117H24.2096C24.3255 14.0117 24.4366 13.9657 24.5185 13.8837C24.6004 13.8018 24.6464 13.6907 24.6464 13.5749C24.6464 13.459 24.6004 13.3479 24.5185 13.266C24.4366 13.1841 24.3255 13.1381 24.2096 13.1381H21.5269C21.4111 13.1381 21.3 13.1841 21.2181 13.266C21.1362 13.3479 21.0902 13.459 21.0902 13.5749C21.0902 13.6907 21.1362 13.8018 21.2181 13.8837C21.3 13.9657 21.4111 14.0117 21.5269 14.0117Z" fill="white"/>
<path d="M5.05062 6.4764C5.41028 6.4764 5.70183 6.18484 5.70183 5.82519C5.70183 5.46554 5.41028 5.17398 5.05062 5.17398C4.69097 5.17398 4.39941 5.46554 4.39941 5.82519C4.39941 6.18484 4.69097 6.4764 5.05062 6.4764Z" fill="white"/>
<path d="M7.02279 6.4764C7.38244 6.4764 7.674 6.18484 7.674 5.82519C7.674 5.46554 7.38244 5.17398 7.02279 5.17398C6.66314 5.17398 6.37158 5.46554 6.37158 5.82519C6.37158 6.18484 6.66314 6.4764 7.02279 6.4764Z" fill="white"/>
<path d="M8.98361 6.4764C9.34326 6.4764 9.63481 6.18484 9.63481 5.82519C9.63481 5.46554 9.34326 5.17398 8.98361 5.17398C8.62395 5.17398 8.3324 5.46554 8.3324 5.82519C8.3324 6.18484 8.62395 6.4764 8.98361 6.4764Z" fill="white"/>
</svg>
