<svg width="26" height="26" viewBox="0 0 26 26" fill="none" xmlns="http://www.w3.org/2000/svg">
<path fill-rule="evenodd" clip-rule="evenodd" d="M18.0962 19.0431C17.9914 19.2625 17.9371 19.5026 17.9375 19.7458V21.904C17.9376 22.3342 18.1077 22.747 18.4109 23.0523L20.5848 25.242C20.8123 25.4712 21.1028 25.6276 21.4193 25.6915C21.7359 25.7554 22.0643 25.7238 22.3629 25.6008C22.6615 25.4778 22.9168 25.2689 23.0965 25.0005C23.2762 24.7322 23.3722 24.4166 23.3723 24.0936V23.5501H23.9157C24.2382 23.5501 24.5533 23.4544 24.8214 23.2753C25.0894 23.0961 25.2984 22.8415 25.4217 22.5436C25.5451 22.2457 25.5774 21.918 25.5145 21.6017C25.4516 21.2855 25.2964 20.995 25.0685 20.767L22.8945 18.5931C22.7432 18.4416 22.5636 18.3214 22.3658 18.2394C22.168 18.1575 21.9559 18.1153 21.7418 18.1154H19.5679C19.3248 18.115 19.0846 18.1693 18.8652 18.2741L13.4304 12.8398C13.3279 12.7408 13.1907 12.6861 13.0482 12.6873C12.9057 12.6885 12.7693 12.7457 12.6686 12.8465C12.5678 12.9472 12.5107 13.0835 12.5094 13.226C12.5082 13.3685 12.563 13.5058 12.662 13.6083L18.0962 19.0431ZM22.2853 24.0936C22.2853 24.2013 22.2533 24.3065 22.1934 24.396C22.1334 24.4854 22.0483 24.5551 21.9487 24.5961C21.8492 24.6371 21.7397 24.6476 21.6341 24.6262C21.5286 24.6049 21.4318 24.5527 21.356 24.4762L19.1821 22.2866C19.0811 22.1848 19.0245 22.0473 19.0244 21.904V19.7458C19.0244 19.6017 19.0817 19.4634 19.1836 19.3615C19.2855 19.2596 19.4238 19.2023 19.5679 19.2023H21.7418C21.8859 19.2023 22.0244 19.2594 22.1261 19.3616L24.3 21.5355C24.376 21.6115 24.4277 21.7083 24.4487 21.8137C24.4696 21.9191 24.4589 22.0284 24.4177 22.1277C24.3766 22.227 24.307 22.3118 24.2176 22.3716C24.1283 22.4313 24.0232 22.4632 23.9157 22.4632H22.8288C22.7573 22.4632 22.6866 22.4773 22.6206 22.5047C22.5545 22.532 22.4946 22.5722 22.4441 22.6228C22.3936 22.6733 22.3536 22.7334 22.3264 22.7994C22.2991 22.8655 22.2852 22.9363 22.2853 23.0078V24.0936Z" fill="white"/>
<path fill-rule="evenodd" clip-rule="evenodd" d="M17.2108 23.8523C15.884 24.3726 14.4712 24.6388 13.0461 24.6371C6.74721 24.6371 1.6331 19.523 1.6331 13.2241C1.6331 6.92519 6.74721 1.81107 13.0461 1.81107C19.345 1.81107 24.4591 6.92519 24.4591 13.2241C24.4591 14.6898 24.1825 16.0915 23.6782 17.3784C23.6329 17.511 23.6406 17.6559 23.6995 17.7829C23.7584 17.91 23.8641 18.0094 23.9945 18.0606C24.1249 18.1117 24.2699 18.1106 24.3995 18.0574C24.5291 18.0042 24.6332 17.9031 24.6901 17.7752C25.2576 16.325 25.548 14.7813 25.5461 13.2241C25.5461 6.32519 19.945 0.724121 13.0461 0.724121C6.14722 0.724121 0.546143 6.32519 0.546143 13.2241C0.546143 20.123 6.14722 25.7241 13.0461 25.7241C14.6559 25.7241 16.1945 25.4192 17.6081 24.8637C17.6761 24.8389 17.7385 24.8006 17.7916 24.7513C17.8447 24.702 17.8874 24.6425 17.9171 24.5764C17.9469 24.5103 17.9631 24.439 17.9649 24.3665C17.9667 24.2941 17.9539 24.222 17.9274 24.1545C17.9009 24.0871 17.8612 24.0256 17.8106 23.9737C17.76 23.9219 17.6995 23.8806 17.6328 23.8525C17.566 23.8243 17.4943 23.8098 17.4218 23.8098C17.3493 23.8097 17.2776 23.8242 17.2108 23.8523Z" fill="white"/>
<path fill-rule="evenodd" clip-rule="evenodd" d="M16.0739 19.6089C15.1279 20.0583 14.0935 20.2908 13.0462 20.2893C9.14675 20.2893 5.981 17.1235 5.981 13.2241C5.981 9.32464 9.14675 6.15888 13.0462 6.15888C16.9456 6.15888 20.1114 9.32464 20.1114 13.2241C20.1114 14.3072 19.8674 15.3339 19.431 16.2513C19.3709 16.3811 19.3645 16.5295 19.4132 16.6641C19.4618 16.7986 19.5616 16.9086 19.6909 16.9701C19.8201 17.0315 19.9683 17.0396 20.1034 16.9924C20.2386 16.9452 20.3496 16.8466 20.4125 16.7181C20.9314 15.6265 21.1999 14.4328 21.1984 13.2241C21.1984 8.72464 17.5456 5.07193 13.0462 5.07193C8.54675 5.07193 4.89404 8.72464 4.89404 13.2241C4.89404 17.7235 8.54675 21.3762 13.0462 21.3762C14.2962 21.3762 15.481 21.0942 16.5402 20.5904C16.6669 20.5265 16.7637 20.4155 16.8097 20.2813C16.8557 20.147 16.8473 20.0001 16.7864 19.8719C16.7255 19.7437 16.6169 19.6444 16.4837 19.5952C16.3506 19.5461 16.2035 19.551 16.0739 19.6089Z" fill="white"/>
<path fill-rule="evenodd" clip-rule="evenodd" d="M13.1978 15.9371C12.8288 15.9576 12.4595 15.9026 12.1125 15.7755C11.7654 15.6484 11.448 15.4519 11.1794 15.198C10.9109 14.9441 10.697 14.6381 10.5507 14.2987C10.4045 13.9593 10.3289 13.5936 10.3288 13.2241C10.3288 11.7241 11.5462 10.5067 13.0462 10.5067C13.4157 10.5069 13.7814 10.5824 14.1208 10.7286C14.4602 10.8749 14.7662 11.0888 15.0201 11.3574C15.274 11.6259 15.4705 11.9434 15.5976 12.2904C15.7247 12.6374 15.7797 13.0067 15.7592 13.3757C15.7513 13.5196 15.8008 13.6608 15.897 13.7682C15.9932 13.8756 16.128 13.9403 16.272 13.9483C16.4159 13.9562 16.5571 13.9066 16.6644 13.8105C16.7718 13.7143 16.8366 13.5794 16.8445 13.4355C16.873 12.919 16.7958 12.4021 16.6178 11.9164C16.4398 11.4307 16.1647 10.9863 15.8092 10.6105C15.4537 10.2347 15.0254 9.9353 14.5503 9.73056C14.0753 9.52582 13.5635 9.42006 13.0462 9.41974C10.9467 9.41974 9.24182 11.1246 9.24182 13.2241C9.24215 13.7414 9.34791 14.2532 9.55264 14.7282C9.75738 15.2033 10.0568 15.6316 10.4326 15.9871C10.8084 16.3426 11.2528 16.6177 11.7385 16.7957C12.2242 16.9737 12.7411 17.0509 13.2576 17.0224C13.4015 17.0145 13.5364 16.9497 13.6325 16.8424C13.7287 16.735 13.7783 16.5938 13.7703 16.4499C13.7624 16.306 13.6976 16.1711 13.5903 16.0749C13.4829 15.9788 13.3417 15.9292 13.1978 15.9371Z" fill="white"/>
</svg>
